<?xml version="1.0" encoding="UTF-8"?><svg id="uuid-a76d7ac8-47f7-409c-92b1-2717eebb22e4" xmlns="http://www.w3.org/2000/svg" viewBox="0 0 50 50"><path d="M19.08,22.33h12.25c1.66,0,3.01,1.35,3.01,3.01v9.67h-18.28v-9.67c0-1.66,1.35-3.01,3.01-3.01Z" fill="none" stroke="#000" stroke-miterlimit="10"/><line x1="13.69" y1="26" x2="16.07" y2="26" fill="none" stroke="#000" stroke-miterlimit="10"/><line x1="31.8" y1="35.41" x2="31.8" y2="36.57" fill="none" stroke="#000" stroke-miterlimit="10"/><line x1="18.14" y1="35.41" x2="18.14" y2="36.57" fill="none" stroke="#000" stroke-miterlimit="10"/><circle cx="18.86" cy="32.02" r=".75"/><path d="M31.82,17.84c0-1.1-.89-2-2-2h-9.23c-1.1,0-2,.89-2,2,0,.92.63,1.69,1.47,1.92v2.57h10.28v-2.57c.85-.23,1.47-1,1.47-1.92Z" fill="none" stroke="#000" stroke-miterlimit="10"/></svg>