<?xml version="1.0" encoding="UTF-8"?><svg id="uuid-cd88b28f-f9da-46f6-bf3a-b2e8b9d9aa68" xmlns="http://www.w3.org/2000/svg" viewBox="0 0 50 50"><path d="M27.38,26.38h0c-3.69,0-3.94,3.31-10.99,3.31h0" fill="none" stroke="#8f3248" stroke-miterlimit="10"/><path d="M17.07,22.25h9.63c.38,0,.68.3.68.68v12.51c0,1.66-1.35,3-3,3h-4.99c-1.66,0-3-1.35-3-3v-12.51c0-.38.3-.68.68-.68Z" transform="translate(43.77 60.68) rotate(180)" fill="none" stroke="#333" stroke-miterlimit="10"/><path d="M24.38,22.25h-4.77v-2.05c0-.62.51-1.13,1.13-1.13h2.85c.62,0,1.13.51,1.13,1.13v2.09c-.11-.01-.22-.03-.33-.03Z" fill="none" stroke="#333" stroke-miterlimit="10"/><line x1="28.05" y1="16.69" x2="19.15" y2="16.69" fill="none" stroke="#333" stroke-miterlimit="10"/><line x1="22.16" y1="16.69" x2="22.16" y2="19.06" fill="none" stroke="#333" stroke-miterlimit="10"/><circle cx="33.18" cy="20.01" r="2.6" fill="none" stroke="#8f3248" stroke-miterlimit="10"/><circle cx="34.37" cy="27.5" r="1.16" fill="none" stroke="#8f3248" stroke-miterlimit="10"/></svg>