<?xml version="1.0" encoding="UTF-8"?>
<svg id="Graphics" xmlns="http://www.w3.org/2000/svg" viewBox="0 0 447.75 87.6">
  <path d="m15.58,62.26c-2.4,0-3.3-.42-3.12-1.68.36-2.52,3.48-1.86,4.56-5.7.24-.72.42-1.44.6-2.82l3.06-22.2c.12-.78.18-1.44.18-2.22-.06-4.14-3.24-3-2.88-5.7.18-1.26,1.08-1.68,3.6-1.68h9.54c2.4,0,3.3.42,3.06,1.68-.3,2.52-3.42,1.86-4.5,5.7-.24.78-.42,1.44-.48,2.22l-3.66,25.86c-.24,1.92.48,2.76,4.26,2.76l3.12-.06c4.2,0,5.64-2.28,8.22-6.18.96-1.5,1.68-2.22,2.58-2.22,1.14,0,1.26,1.08.96,2.64-.48,3.12-1.2,5.4-1.92,7.08-.66,1.8-1.62,2.52-5.34,2.52H15.58Z"/>
  <path d="m81.94,56.62c-.12,2.52-3,6.18-7.56,6.18-2.94,0-5.28-1.26-5.46-5.52-2.52,3.48-6.36,5.58-10.32,5.58-5.64,0-9.96-4.14-9.96-10.86,0-10.5,7.56-19.08,16.26-19.08,3.3,0,5.28,1.2,6.72,1.2,1.68,0,3.78-1.26,5.22-1.26s1.92,1.02,1.8,2.4l-1.44,19.2c-.12,1.92.18,2.7,1.14,2.7,1.08,0,1.8-1.68,2.7-1.68.36,0,.9.3.9,1.14Zm-11.88-12.06l.12-1.92c.24-4.08-2.28-6.24-5.16-6.24-5.04,0-7.8,7.86-7.86,13.68-.06,5.34,2.04,7.56,4.74,7.56,4.32,0,7.74-6.6,8.16-13.08Z"/>
  <path d="m118,31c-.18,2.7-3.18,4.2-6,4.68,1.8,1.56,2.82,3.72,2.82,6.18,0,7.08-6.6,12.06-14.88,12.06-2.22,0-4.2-.3-5.88-.84-.84.54-1.62,1.26-1.74,2.22-.3,2.4,2.94,3,5.88,3,3.42,0,7.56-.6,10.14-.6,5.58,0,8.28,2.52,7.68,6.6-.9,6.42-8.46,10.62-18.96,10.62-7.14,0-13.32-2.1-12.66-7.26.3-1.86,1.92-3.9,4.5-4.86-2.04-1.08-3.3-2.82-3-5.28.36-2.22,1.98-4.2,5.46-5.64-2.28-1.44-3.6-3.66-3.6-6.66,0-6.66,7.02-12.3,15.48-12.3h.06c2.1,0,2.76.18,4.14.18s3.36-.66,5.64-3.18c.72-.84,1.5-1.44,2.64-1.44,1.32,0,2.34,1.02,2.28,2.52Zm-27,36.3c-.3,2.7,2.94,4.08,8.16,4.08,5.76,0,8.88-1.74,9.18-4.44.24-1.44-.42-2.88-3.48-2.7-3.24,0-6,.36-9.66.3-1.8-.06-3.84.72-4.2,2.76Zm15.9-24.96c0-3.3-1.5-6.18-4.86-6.18-3.84,0-6.24,4.26-6.24,8.4,0,3.48,1.74,6.12,5.1,6.12,3.84,0,6-4.26,6-8.34Z"/>
  <path d="m152.62,56.62c-.12,2.52-3,6.18-7.86,6.18-2.82,0-5.16-1.56-4.98-6-3,3.96-6.42,6.06-10.44,6.06-6.9,0-9.42-4.44-8.4-11.64l1.38-9.24c.54-3.6-2.28-2.64-2.28-4.5,0-.9.48-1.74,4.14-3.12,2.1-.78,4.44-1.44,5.82-1.44,1.02,0,1.68.6,1.44,1.86l-2.22,14.4c-.9,5.28-1.02,8.88,2.64,8.88s8.22-4.8,10.14-16.86l.84-5.28c.12-1.02.78-1.44,1.62-1.68l4.98-1.2c1.08-.3,1.68.6,1.56,1.62l-3,19.74c-.3,1.92,0,2.76.96,2.76,1.14,0,1.86-1.68,2.7-1.68.42,0,.96.3.96,1.14Z"/>
  <path d="m191.26,56.62c-.12,2.52-3,6.18-7.68,6.18-3.48,0-5.4-2.4-4.92-7.26l.78-10.92c.36-4.14-.06-6.66-2.88-6.66-3.24,0-7.98,5.1-10.08,17.16l-.78,4.8c-.18.96-.72,1.44-1.56,1.68l-5.04,1.2c-1.02.24-1.62-.48-1.5-1.62l2.76-19.08c.54-3.6-2.28-2.76-2.28-4.62,0-.9.54-1.74,4.14-3.12,2.1-.78,3.72-1.38,5.1-1.38,1.02,0,1.62.54,1.44,1.8l-.9,5.88c2.88-4.86,6.9-7.74,11.64-7.74,6.18,0,8.34,4.44,7.86,11.28l-.72,10.26c-.12,1.92.06,2.7.96,2.7,1.14,0,1.86-1.68,2.76-1.68.36,0,.9.3.9,1.14Z"/>
  <path d="m220.9,55.18c-1.62,3.36-6.72,7.68-13.92,7.68s-12.48-4.32-12.48-12.24c0-8.58,7.32-17.76,18.54-17.76,4.86,0,9.06,2.34,9.06,6.9,0,8.04-10.44,11.46-18.84,12.6,1.08,2.94,3.72,4.86,7.08,4.86,3.72,0,6.54-1.68,8.88-3.54,1.38-1.14,2.52-.24,1.68,1.5Zm-18.54-7.86c0,1.02.42,1.5,1.62,1.38,4.44-.72,11.28-2.88,11.28-7.92,0-2.4-1.68-4.32-4.44-4.32-5.04,0-8.46,5.28-8.46,10.86Z"/>
  <path d="m259.78,56.62c-.12,2.52-3,6.18-7.68,6.18-3.48,0-5.4-2.4-4.92-7.26l.78-10.92c.36-4.14-.06-6.66-2.88-6.66-3.24,0-7.98,5.1-10.08,17.16l-.78,4.8c-.18.96-.72,1.44-1.56,1.68l-5.04,1.2c-1.02.24-1.62-.48-1.5-1.62l2.76-19.08c.54-3.6-2.28-2.76-2.28-4.62,0-.9.54-1.74,4.14-3.12,2.1-.78,3.72-1.38,5.1-1.38,1.02,0,1.62.54,1.44,1.8l-.9,5.88c2.88-4.86,6.9-7.74,11.64-7.74,6.18,0,8.34,4.44,7.86,11.28l-.72,10.26c-.12,1.92.06,2.7.96,2.7,1.14,0,1.86-1.68,2.76-1.68.36,0,.9.3.9,1.14Z"/>
  <path d="m277.84,62.26c-2.4,0-3.24-.36-3.12-1.68.48-3.12,4.08-.72,5.16-8.52l3.06-21.6c1.08-7.8-3.18-5.4-2.7-8.52.12-1.32,1.2-1.68,3.54-1.68h23.28c3.48,0,4.26.3,4.62,2.1.36,1.62.66,3.66.72,6.18.06,1.62-.18,2.64-1.32,2.94-1.14.36-1.8-.18-2.64-1.74-1.74-3.78-3.96-5.7-8.16-5.7h-2.64c-4.44,0-5.46.84-5.7,2.76l-.84,6.12c-.42,2.52.96,2.94,4.14,2.94,5.04,0,4.92-2.04,7.02-2.04,1.14,0,1.44.72,1.56,1.8l.42,6.84c.24,2.16-.24,2.7-1.38,2.94-2.94.66-2.4-5.7-8.16-5.76-3.18,0-4.68.36-4.98,2.94l-1.86,13.08c-.3,1.98.42,2.82,5.28,2.82l3.96-.06c4.2,0,5.82-2.22,8.34-6.42,1.26-2.04,2.1-2.52,3.06-2.28,1.2.24,1.14,1.14.9,2.76-.66,3.3-1.26,5.58-1.98,7.26-.72,1.8-1.74,2.52-5.4,2.52h-24.18Z"/>
  <path d="m333.64,32.98c2.16-.3,2.46.54,1.68,2.64-.9,2.4-1.98,2.34-3.42,2.52l-5.64.48c-.72,4.92-1.32,9.42-1.68,12.6-.54,4.74.48,6,2.4,6,1.26,0,2.7-.78,3.78-2.1.9-1.08,1.8-.42,1.8.6,0,3-4.08,7.14-9.18,7.14-5.4,0-7.8-3.3-7.26-8.7.3-3,1.26-9.3,2.22-15.06l-2.82.3c-1.38.12-2.04-.36-1.68-2.1.24-1.32,1.02-1.86,2.28-2.04l2.94-.42c.36-2.28.72-4.32.96-5.76.18-.96.72-1.44,1.62-1.68l4.8-1.08c1.02-.24,1.74.48,1.56,1.62-.36,1.92-.66,3.9-1.02,5.88l6.66-.84Z"/>
  <path d="m367.96,37c-.24,2.1-1.62,3.48-3.06,3.48-1.32,0-1.56-1.38-2.7-1.38-1.56,0-4.26,3.6-7.08,8.22l1.74,4.14c1.26,2.88,2.76,5.94,4.8,5.94,1.02,0,1.56-.6,2.4-.6.72,0,.96.54.96,1.08,0,2.28-4.32,4.98-7.62,4.98-3.66,0-5.22-2.88-6.9-6.66l-1.2-2.88c-3.42,5.58-6.54,9.54-10.14,9.54-2.64,0-3.96-1.86-3.96-3.96,0-2.28,1.68-3.66,3.12-3.66,1.32,0,1.56,1.38,2.64,1.38,1.68,0,4.08-2.7,6.72-7.08l-3.12-7.32c-.84-1.8-1.86-3.12-3.06-3.24-.96-.06-1.8-.18-1.8-1.2,0-1.92,5.94-4.98,7.74-4.98.9,0,1.68.54,2.16,1.62l3.84,9.06c3.42-5.58,7.08-10.62,10.8-10.62,2.64,0,3.96,1.86,3.72,4.14Z"/>
  <path d="m396.22,55.18c-1.62,3.36-6.72,7.68-13.92,7.68s-12.48-4.32-12.48-12.24c0-8.58,7.32-17.76,18.54-17.76,4.86,0,9.06,2.34,9.06,6.9,0,8.04-10.44,11.46-18.84,12.6,1.08,2.94,3.72,4.86,7.08,4.86,3.72,0,6.54-1.68,8.88-3.54,1.38-1.14,2.52-.24,1.68,1.5Zm-18.54-7.86c0,1.02.42,1.5,1.62,1.38,4.44-.72,11.28-2.88,11.28-7.92,0-2.4-1.68-4.32-4.44-4.32-5.04,0-8.46,5.28-8.46,10.86Z"/>
  <path d="m433.6,56.62c-.12,2.52-3,6.18-7.56,6.18-2.94,0-5.28-1.26-5.46-5.52-2.52,3.48-6.36,5.58-10.32,5.58-5.64,0-9.96-4.14-9.96-10.86,0-10.5,7.56-19.08,16.26-19.08,3.3,0,5.28,1.2,6.72,1.2,1.68,0,3.78-1.26,5.22-1.26s1.92,1.02,1.8,2.4l-1.44,19.2c-.12,1.92.18,2.7,1.14,2.7,1.08,0,1.8-1.68,2.7-1.68.36,0,.9.3.9,1.14Zm-11.88-12.06l.12-1.92c.24-4.08-2.28-6.24-5.16-6.24-5.04,0-7.8,7.86-7.86,13.68-.06,5.34,2.04,7.56,4.74,7.56,4.32,0,7.74-6.6,8.16-13.08Z"/>
</svg>