<?xml version="1.0" encoding="utf-8"?>
<svg version="1.1" id="Calque_1" xmlns="http://www.w3.org/2000/svg" xmlns:xlink="http://www.w3.org/1999/xlink" x="0px" y="0px"
	 viewBox="0 0 66.2 66.2" style="enable-background:new 0 0 66.2 66.2;" xml:space="preserve">
<style type="text/css">
	.tatziki{fill:#6FBFB1;}
	.rouge{fill:#CE1B5C;}
</style>
<path class="tatziki" d="M66.1,47L59.3,8.8C58.3,3,52.8-0.9,47,0.2L8.8,6.9c-5.8,1-9.6,6.5-8.6,12.3l6.8,38.2c1,5.8,6.5,9.6,12.3,8.6
	l10.4-1.8L5,21.6c-1.7-3.8-0.8-6.8,2.8-9.4c4-1.8,7.1-1,9.4,2.3L31.8,40c0.7-3.1,1.7-5.9,2.3-8.8c0.7-2.8,1.1-4.1,1.2-4.4
	c1.4-3.8,4.3-5.4,8.5-4.5c1.8,0.4,3.4,1.6,4.4,3.2c0.9,1.5,1.1,3.3,0.6,5c-0.1,0.7-0.6,2.4-1.5,5.4c3.8,1.1,5.9,1.7,6.4,1.7
	c0.9,0.1,1.4-0.4,1.4-1.1c0.3-0.5,0.2-1.2-0.4-1.5c-0.1-0.1-0.2-0.1-0.3-0.1l-2.3-0.6l1.4-5.3l2.3,0.6c3.9,1.3,5.4,4.1,4.7,8.3
	c-1.4,4.1-4.2,5.8-8.2,5.2L40.6,40l2.9-10.7c0.1-0.3,0.1-0.6,0-0.9c-0.3-0.3-0.6-0.5-1-0.7c-0.4-0.1-0.8,0-1.2,0.1
	c-0.2,0.1-0.3,0.3-0.5,0.7l-6.9,25.9l-21.5-37c-0.7-0.6-1.3-0.8-1.8-0.3c-0.7,0.3-0.9,1.1-0.6,1.8l25.7,44.4l21.9-3.9
	C63.2,58.3,67.1,52.8,66.1,47z M56.4,24.8c-1.7,1-3.9,0.4-4.9-1.3c-0.8-2-0.6-3.7,1.3-4.9c0.1,0,0.1-0.1,0.2-0.1
	c1.7-0.9,3.8-0.3,4.8,1.4C58.6,21.8,58.2,23.4,56.4,24.8z"/>
<path class="rouge" d="M52.9,18.4c-0.1,0-0.1,0.1-0.2,0.1c-1.9,1.3-2.2,2.9-1.3,4.9c1,1.7,3.2,2.3,4.9,1.3c1.9-1.4,2.3-3,1.3-5
	C56.8,18.1,54.6,17.5,52.9,18.4z"/>
</svg>
